<mxfile host="app.diagrams.net" modified="2023-08-14T14:00:03.075Z" agent="Mozilla/5.0 (Windows NT 10.0; Win64; x64) AppleWebKit/537.36 (KHTML, like Gecko) Chrome/115.0.0.0 Safari/537.36" etag="2cKbO6CEDk7KzgZe3-lR" version="21.6.8" type="github">
  <diagram name="Page-1" id="e7e014a7-5840-1c2e-5031-d8a46d1fe8dd">
    <mxGraphModel dx="396" dy="1081" grid="1" gridSize="10" guides="1" tooltips="1" connect="1" arrows="1" fold="1" page="1" pageScale="1" pageWidth="1169" pageHeight="826" background="none" math="0" shadow="0">
      <root>
        <mxCell id="0" />
        <mxCell id="1" parent="0" />
        <mxCell id="3" value="Back" style="swimlane;whiteSpace=wrap" parent="1" vertex="1">
          <mxGeometry x="285" y="47" width="200" height="732" as="geometry" />
        </mxCell>
        <mxCell id="zPZcFMMT5zsT-Kv5wijd-44" value="/CollectedController" style="rounded=0;whiteSpace=wrap;html=1;" vertex="1" parent="3">
          <mxGeometry x="46.5" y="47" width="120" height="60" as="geometry" />
        </mxCell>
        <mxCell id="zPZcFMMT5zsT-Kv5wijd-46" value="" style="html=1;points=[];perimeter=orthogonalPerimeter;outlineConnect=0;targetShapes=umlLifeline;portConstraint=eastwest;newEdgeStyle={&quot;edgeStyle&quot;:&quot;elbowEdgeStyle&quot;,&quot;elbow&quot;:&quot;vertical&quot;,&quot;curved&quot;:0,&quot;rounded&quot;:0};" vertex="1" parent="3">
          <mxGeometry x="101.5" y="132" width="10" height="100" as="geometry" />
        </mxCell>
        <mxCell id="zPZcFMMT5zsT-Kv5wijd-49" value="" style="endArrow=none;dashed=1;html=1;rounded=0;entryX=0.5;entryY=1;entryDx=0;entryDy=0;" edge="1" parent="3" source="zPZcFMMT5zsT-Kv5wijd-46" target="zPZcFMMT5zsT-Kv5wijd-44">
          <mxGeometry width="50" height="50" relative="1" as="geometry">
            <mxPoint x="161.5" y="152" as="sourcePoint" />
            <mxPoint x="211.5" y="102" as="targetPoint" />
          </mxGeometry>
        </mxCell>
        <mxCell id="zPZcFMMT5zsT-Kv5wijd-47" value="" style="endArrow=classic;html=1;rounded=0;" edge="1" parent="3">
          <mxGeometry width="50" height="50" relative="1" as="geometry">
            <mxPoint x="-89" y="142" as="sourcePoint" />
            <mxPoint x="101.5" y="142" as="targetPoint" />
          </mxGeometry>
        </mxCell>
        <mxCell id="zPZcFMMT5zsT-Kv5wijd-48" value="ObtenerData()" style="edgeLabel;html=1;align=center;verticalAlign=middle;resizable=0;points=[];" vertex="1" connectable="0" parent="zPZcFMMT5zsT-Kv5wijd-47">
          <mxGeometry x="-0.0708" y="1" relative="1" as="geometry">
            <mxPoint y="-9" as="offset" />
          </mxGeometry>
        </mxCell>
        <mxCell id="zPZcFMMT5zsT-Kv5wijd-53" value="" style="endArrow=classic;html=1;rounded=0;" edge="1" parent="3" target="zPZcFMMT5zsT-Kv5wijd-51">
          <mxGeometry width="50" height="50" relative="1" as="geometry">
            <mxPoint x="111.5" y="162" as="sourcePoint" />
            <mxPoint x="381.5" y="162" as="targetPoint" />
          </mxGeometry>
        </mxCell>
        <mxCell id="zPZcFMMT5zsT-Kv5wijd-54" value="ObtenerData()" style="edgeLabel;html=1;align=center;verticalAlign=middle;resizable=0;points=[];" vertex="1" connectable="0" parent="zPZcFMMT5zsT-Kv5wijd-53">
          <mxGeometry x="-0.0708" y="1" relative="1" as="geometry">
            <mxPoint y="-9" as="offset" />
          </mxGeometry>
        </mxCell>
        <mxCell id="zPZcFMMT5zsT-Kv5wijd-56" value="return Data" style="html=1;verticalAlign=bottom;endArrow=open;dashed=1;endSize=8;edgeStyle=elbowEdgeStyle;elbow=vertical;curved=0;rounded=0;" edge="1" parent="3" source="zPZcFMMT5zsT-Kv5wijd-51">
          <mxGeometry relative="1" as="geometry">
            <mxPoint x="191.5" y="202.32999999999998" as="sourcePoint" />
            <mxPoint x="111.5" y="202.32999999999998" as="targetPoint" />
          </mxGeometry>
        </mxCell>
        <mxCell id="zPZcFMMT5zsT-Kv5wijd-120" value="" style="html=1;points=[];perimeter=orthogonalPerimeter;outlineConnect=0;targetShapes=umlLifeline;portConstraint=eastwest;newEdgeStyle={&quot;edgeStyle&quot;:&quot;elbowEdgeStyle&quot;,&quot;elbow&quot;:&quot;vertical&quot;,&quot;curved&quot;:0,&quot;rounded&quot;:0};" vertex="1" parent="3">
          <mxGeometry x="101" y="257" width="10" height="303" as="geometry" />
        </mxCell>
        <mxCell id="zPZcFMMT5zsT-Kv5wijd-121" value="" style="endArrow=none;dashed=1;html=1;rounded=0;entryX=0.5;entryY=1;entryDx=0;entryDy=0;" edge="1" parent="3" source="zPZcFMMT5zsT-Kv5wijd-120">
          <mxGeometry width="50" height="50" relative="1" as="geometry">
            <mxPoint x="161" y="277" as="sourcePoint" />
            <mxPoint x="106.5" y="232" as="targetPoint" />
          </mxGeometry>
        </mxCell>
        <mxCell id="zPZcFMMT5zsT-Kv5wijd-122" value="" style="endArrow=classic;html=1;rounded=0;" edge="1" parent="3">
          <mxGeometry width="50" height="50" relative="1" as="geometry">
            <mxPoint x="-89" y="267" as="sourcePoint" />
            <mxPoint x="101" y="267" as="targetPoint" />
          </mxGeometry>
        </mxCell>
        <mxCell id="zPZcFMMT5zsT-Kv5wijd-123" value="SincronizarData()" style="edgeLabel;html=1;align=center;verticalAlign=middle;resizable=0;points=[];" vertex="1" connectable="0" parent="zPZcFMMT5zsT-Kv5wijd-122">
          <mxGeometry x="-0.0708" y="1" relative="1" as="geometry">
            <mxPoint y="-9" as="offset" />
          </mxGeometry>
        </mxCell>
        <mxCell id="zPZcFMMT5zsT-Kv5wijd-124" value="" style="endArrow=classic;html=1;rounded=0;" edge="1" parent="3" target="zPZcFMMT5zsT-Kv5wijd-113">
          <mxGeometry width="50" height="50" relative="1" as="geometry">
            <mxPoint x="111" y="287" as="sourcePoint" />
            <mxPoint x="381" y="287" as="targetPoint" />
          </mxGeometry>
        </mxCell>
        <mxCell id="zPZcFMMT5zsT-Kv5wijd-125" value="ObtenerDataConteo()" style="edgeLabel;html=1;align=center;verticalAlign=middle;resizable=0;points=[];" vertex="1" connectable="0" parent="zPZcFMMT5zsT-Kv5wijd-124">
          <mxGeometry x="-0.0708" y="1" relative="1" as="geometry">
            <mxPoint y="-9" as="offset" />
          </mxGeometry>
        </mxCell>
        <mxCell id="zPZcFMMT5zsT-Kv5wijd-126" value="return DataConteo" style="html=1;verticalAlign=bottom;endArrow=open;dashed=1;endSize=8;edgeStyle=elbowEdgeStyle;elbow=vertical;curved=0;rounded=0;" edge="1" parent="3" source="zPZcFMMT5zsT-Kv5wijd-113">
          <mxGeometry relative="1" as="geometry">
            <mxPoint x="380.5" y="328" as="sourcePoint" />
            <mxPoint x="111" y="327.33" as="targetPoint" />
          </mxGeometry>
        </mxCell>
        <mxCell id="zPZcFMMT5zsT-Kv5wijd-137" value="Descarga Reporte" style="html=1;verticalAlign=bottom;endArrow=open;dashed=1;endSize=8;edgeStyle=elbowEdgeStyle;elbow=vertical;curved=0;rounded=0;" edge="1" parent="3">
          <mxGeometry relative="1" as="geometry">
            <mxPoint x="101" y="675.6700000000001" as="sourcePoint" />
            <mxPoint x="-89" y="675.8" as="targetPoint" />
          </mxGeometry>
        </mxCell>
        <mxCell id="zPZcFMMT5zsT-Kv5wijd-138" value="" style="html=1;points=[];perimeter=orthogonalPerimeter;outlineConnect=0;targetShapes=umlLifeline;portConstraint=eastwest;newEdgeStyle={&quot;edgeStyle&quot;:&quot;elbowEdgeStyle&quot;,&quot;elbow&quot;:&quot;vertical&quot;,&quot;curved&quot;:0,&quot;rounded&quot;:0};" vertex="1" parent="3">
          <mxGeometry x="102" y="585" width="10" height="100" as="geometry" />
        </mxCell>
        <mxCell id="zPZcFMMT5zsT-Kv5wijd-139" value="" style="endArrow=none;dashed=1;html=1;rounded=0;entryX=0.5;entryY=1;entryDx=0;entryDy=0;" edge="1" parent="3" source="zPZcFMMT5zsT-Kv5wijd-138">
          <mxGeometry width="50" height="50" relative="1" as="geometry">
            <mxPoint x="162" y="605" as="sourcePoint" />
            <mxPoint x="107.5" y="560" as="targetPoint" />
          </mxGeometry>
        </mxCell>
        <mxCell id="zPZcFMMT5zsT-Kv5wijd-140" value="" style="endArrow=classic;html=1;rounded=0;" edge="1" parent="3">
          <mxGeometry width="50" height="50" relative="1" as="geometry">
            <mxPoint x="-89" y="595" as="sourcePoint" />
            <mxPoint x="102" y="595" as="targetPoint" />
          </mxGeometry>
        </mxCell>
        <mxCell id="zPZcFMMT5zsT-Kv5wijd-141" value="ObtenerReporte()" style="edgeLabel;html=1;align=center;verticalAlign=middle;resizable=0;points=[];" vertex="1" connectable="0" parent="zPZcFMMT5zsT-Kv5wijd-140">
          <mxGeometry x="-0.0708" y="1" relative="1" as="geometry">
            <mxPoint y="-9" as="offset" />
          </mxGeometry>
        </mxCell>
        <mxCell id="zPZcFMMT5zsT-Kv5wijd-142" value="" style="endArrow=classic;html=1;rounded=0;" edge="1" parent="3" target="zPZcFMMT5zsT-Kv5wijd-145">
          <mxGeometry width="50" height="50" relative="1" as="geometry">
            <mxPoint x="112" y="615" as="sourcePoint" />
            <mxPoint x="382" y="615" as="targetPoint" />
          </mxGeometry>
        </mxCell>
        <mxCell id="zPZcFMMT5zsT-Kv5wijd-143" value="ObtenerData()" style="edgeLabel;html=1;align=center;verticalAlign=middle;resizable=0;points=[];" vertex="1" connectable="0" parent="zPZcFMMT5zsT-Kv5wijd-142">
          <mxGeometry x="-0.0708" y="1" relative="1" as="geometry">
            <mxPoint y="-9" as="offset" />
          </mxGeometry>
        </mxCell>
        <mxCell id="zPZcFMMT5zsT-Kv5wijd-144" value="return Data" style="html=1;verticalAlign=bottom;endArrow=open;dashed=1;endSize=8;edgeStyle=elbowEdgeStyle;elbow=vertical;curved=0;rounded=0;" edge="1" parent="3" source="zPZcFMMT5zsT-Kv5wijd-145">
          <mxGeometry relative="1" as="geometry">
            <mxPoint x="192" y="655.3299999999999" as="sourcePoint" />
            <mxPoint x="112" y="655.3299999999999" as="targetPoint" />
          </mxGeometry>
        </mxCell>
        <mxCell id="zPZcFMMT5zsT-Kv5wijd-147" value="" style="endArrow=none;dashed=1;html=1;rounded=0;entryX=0.5;entryY=1;entryDx=0;entryDy=0;" edge="1" parent="3">
          <mxGeometry width="50" height="50" relative="1" as="geometry">
            <mxPoint x="107.25" y="710" as="sourcePoint" />
            <mxPoint x="106.75" y="685" as="targetPoint" />
          </mxGeometry>
        </mxCell>
        <mxCell id="zPZcFMMT5zsT-Kv5wijd-130" value="return DataRecaudos" style="html=1;verticalAlign=bottom;endArrow=open;dashed=1;endSize=8;edgeStyle=elbowEdgeStyle;elbow=vertical;curved=0;rounded=0;" edge="1" parent="3" source="zPZcFMMT5zsT-Kv5wijd-117">
          <mxGeometry relative="1" as="geometry">
            <mxPoint x="776" y="422" as="sourcePoint" />
            <mxPoint x="111" y="422" as="targetPoint" />
            <Array as="points">
              <mxPoint x="111" y="422" />
            </Array>
          </mxGeometry>
        </mxCell>
        <mxCell id="4" value="SGBD" style="swimlane;whiteSpace=wrap" parent="1" vertex="1">
          <mxGeometry x="485" y="47" width="200" height="732" as="geometry" />
        </mxCell>
        <mxCell id="zPZcFMMT5zsT-Kv5wijd-50" value="Recaudos" style="rounded=0;whiteSpace=wrap;html=1;" vertex="1" parent="4">
          <mxGeometry x="46" y="47" width="120" height="60" as="geometry" />
        </mxCell>
        <mxCell id="zPZcFMMT5zsT-Kv5wijd-51" value="" style="html=1;points=[];perimeter=orthogonalPerimeter;outlineConnect=0;targetShapes=umlLifeline;portConstraint=eastwest;newEdgeStyle={&quot;edgeStyle&quot;:&quot;elbowEdgeStyle&quot;,&quot;elbow&quot;:&quot;vertical&quot;,&quot;curved&quot;:0,&quot;rounded&quot;:0};" vertex="1" parent="4">
          <mxGeometry x="101" y="132" width="10" height="100" as="geometry" />
        </mxCell>
        <mxCell id="zPZcFMMT5zsT-Kv5wijd-52" value="" style="endArrow=none;dashed=1;html=1;rounded=0;entryX=0.5;entryY=1;entryDx=0;entryDy=0;" edge="1" parent="4" source="zPZcFMMT5zsT-Kv5wijd-51">
          <mxGeometry width="50" height="50" relative="1" as="geometry">
            <mxPoint x="161" y="152" as="sourcePoint" />
            <mxPoint x="106.5" y="107" as="targetPoint" />
          </mxGeometry>
        </mxCell>
        <mxCell id="zPZcFMMT5zsT-Kv5wijd-128" value="" style="endArrow=classic;html=1;rounded=0;" edge="1" parent="4" target="zPZcFMMT5zsT-Kv5wijd-117">
          <mxGeometry width="50" height="50" relative="1" as="geometry">
            <mxPoint x="-85" y="383" as="sourcePoint" />
            <mxPoint x="381" y="382" as="targetPoint" />
          </mxGeometry>
        </mxCell>
        <mxCell id="zPZcFMMT5zsT-Kv5wijd-129" value="ObtenerDataRecaudos()" style="edgeLabel;html=1;align=center;verticalAlign=middle;resizable=0;points=[];" vertex="1" connectable="0" parent="zPZcFMMT5zsT-Kv5wijd-128">
          <mxGeometry x="-0.0708" y="1" relative="1" as="geometry">
            <mxPoint y="-9" as="offset" />
          </mxGeometry>
        </mxCell>
        <mxCell id="zPZcFMMT5zsT-Kv5wijd-131" value="" style="html=1;points=[];perimeter=orthogonalPerimeter;outlineConnect=0;targetShapes=umlLifeline;portConstraint=eastwest;newEdgeStyle={&quot;edgeStyle&quot;:&quot;elbowEdgeStyle&quot;,&quot;elbow&quot;:&quot;vertical&quot;,&quot;curved&quot;:0,&quot;rounded&quot;:0};" vertex="1" parent="4">
          <mxGeometry x="101" y="452" width="10" height="108" as="geometry" />
        </mxCell>
        <mxCell id="zPZcFMMT5zsT-Kv5wijd-132" value="" style="endArrow=none;dashed=1;html=1;rounded=0;entryX=0.5;entryY=1;entryDx=0;entryDy=0;" edge="1" parent="4" source="zPZcFMMT5zsT-Kv5wijd-131">
          <mxGeometry width="50" height="50" relative="1" as="geometry">
            <mxPoint x="161" y="277" as="sourcePoint" />
            <mxPoint x="106.5" y="232" as="targetPoint" />
          </mxGeometry>
        </mxCell>
        <mxCell id="zPZcFMMT5zsT-Kv5wijd-134" value="" style="endArrow=classic;html=1;rounded=0;" edge="1" parent="4" target="zPZcFMMT5zsT-Kv5wijd-131">
          <mxGeometry width="50" height="50" relative="1" as="geometry">
            <mxPoint x="-85" y="482" as="sourcePoint" />
            <mxPoint x="381" y="482" as="targetPoint" />
          </mxGeometry>
        </mxCell>
        <mxCell id="zPZcFMMT5zsT-Kv5wijd-135" value="RegistrarConteoYRecaudo()" style="edgeLabel;html=1;align=center;verticalAlign=middle;resizable=0;points=[];" vertex="1" connectable="0" parent="zPZcFMMT5zsT-Kv5wijd-134">
          <mxGeometry x="-0.0708" y="1" relative="1" as="geometry">
            <mxPoint y="-9" as="offset" />
          </mxGeometry>
        </mxCell>
        <mxCell id="zPZcFMMT5zsT-Kv5wijd-136" value="return Confirmación" style="html=1;verticalAlign=bottom;endArrow=open;dashed=1;endSize=8;edgeStyle=elbowEdgeStyle;elbow=vertical;curved=0;rounded=0;" edge="1" parent="4">
          <mxGeometry relative="1" as="geometry">
            <mxPoint x="101.5" y="522" as="sourcePoint" />
            <mxPoint x="-85" y="522" as="targetPoint" />
          </mxGeometry>
        </mxCell>
        <mxCell id="zPZcFMMT5zsT-Kv5wijd-146" value="" style="endArrow=none;dashed=1;html=1;rounded=0;entryX=0.5;entryY=1;entryDx=0;entryDy=0;" edge="1" parent="4" source="zPZcFMMT5zsT-Kv5wijd-145">
          <mxGeometry width="50" height="50" relative="1" as="geometry">
            <mxPoint x="161" y="605" as="sourcePoint" />
            <mxPoint x="106.5" y="560" as="targetPoint" />
          </mxGeometry>
        </mxCell>
        <mxCell id="zPZcFMMT5zsT-Kv5wijd-145" value="" style="html=1;points=[];perimeter=orthogonalPerimeter;outlineConnect=0;targetShapes=umlLifeline;portConstraint=eastwest;newEdgeStyle={&quot;edgeStyle&quot;:&quot;elbowEdgeStyle&quot;,&quot;elbow&quot;:&quot;vertical&quot;,&quot;curved&quot;:0,&quot;rounded&quot;:0};" vertex="1" parent="4">
          <mxGeometry x="101" y="585" width="10" height="100" as="geometry" />
        </mxCell>
        <mxCell id="zPZcFMMT5zsT-Kv5wijd-149" value="" style="endArrow=none;dashed=1;html=1;rounded=0;entryX=0.5;entryY=1;entryDx=0;entryDy=0;" edge="1" parent="4">
          <mxGeometry width="50" height="50" relative="1" as="geometry">
            <mxPoint x="106.21000000000004" y="710" as="sourcePoint" />
            <mxPoint x="105.71000000000004" y="685" as="targetPoint" />
          </mxGeometry>
        </mxCell>
        <mxCell id="zPZcFMMT5zsT-Kv5wijd-111" value="ApliClient" style="swimlane;whiteSpace=wrap" vertex="1" parent="1">
          <mxGeometry x="685" y="47" width="200" height="732" as="geometry" />
        </mxCell>
        <mxCell id="zPZcFMMT5zsT-Kv5wijd-112" value="/ConteoVehiculos" style="rounded=0;whiteSpace=wrap;html=1;" vertex="1" parent="zPZcFMMT5zsT-Kv5wijd-111">
          <mxGeometry x="46" y="47" width="120" height="60" as="geometry" />
        </mxCell>
        <mxCell id="zPZcFMMT5zsT-Kv5wijd-113" value="" style="html=1;points=[];perimeter=orthogonalPerimeter;outlineConnect=0;targetShapes=umlLifeline;portConstraint=eastwest;newEdgeStyle={&quot;edgeStyle&quot;:&quot;elbowEdgeStyle&quot;,&quot;elbow&quot;:&quot;vertical&quot;,&quot;curved&quot;:0,&quot;rounded&quot;:0};" vertex="1" parent="zPZcFMMT5zsT-Kv5wijd-111">
          <mxGeometry x="101" y="252" width="10" height="100" as="geometry" />
        </mxCell>
        <mxCell id="zPZcFMMT5zsT-Kv5wijd-114" value="" style="endArrow=none;dashed=1;html=1;rounded=0;entryX=0.5;entryY=1;entryDx=0;entryDy=0;" edge="1" parent="zPZcFMMT5zsT-Kv5wijd-111" source="zPZcFMMT5zsT-Kv5wijd-113">
          <mxGeometry width="50" height="50" relative="1" as="geometry">
            <mxPoint x="161" y="152" as="sourcePoint" />
            <mxPoint x="106.5" y="107" as="targetPoint" />
          </mxGeometry>
        </mxCell>
        <mxCell id="zPZcFMMT5zsT-Kv5wijd-150" value="" style="endArrow=none;dashed=1;html=1;rounded=0;entryX=0.5;entryY=1;entryDx=0;entryDy=0;" edge="1" parent="zPZcFMMT5zsT-Kv5wijd-111">
          <mxGeometry width="50" height="50" relative="1" as="geometry">
            <mxPoint x="106" y="712" as="sourcePoint" />
            <mxPoint x="105.71000000000004" y="352" as="targetPoint" />
          </mxGeometry>
        </mxCell>
        <mxCell id="zPZcFMMT5zsT-Kv5wijd-115" value="ApliClient" style="swimlane;whiteSpace=wrap" vertex="1" parent="1">
          <mxGeometry x="885" y="47" width="200" height="732" as="geometry" />
        </mxCell>
        <mxCell id="zPZcFMMT5zsT-Kv5wijd-116" value="/RecaudoVehiculos" style="rounded=0;whiteSpace=wrap;html=1;" vertex="1" parent="zPZcFMMT5zsT-Kv5wijd-115">
          <mxGeometry x="46" y="47" width="120" height="60" as="geometry" />
        </mxCell>
        <mxCell id="zPZcFMMT5zsT-Kv5wijd-117" value="" style="html=1;points=[];perimeter=orthogonalPerimeter;outlineConnect=0;targetShapes=umlLifeline;portConstraint=eastwest;newEdgeStyle={&quot;edgeStyle&quot;:&quot;elbowEdgeStyle&quot;,&quot;elbow&quot;:&quot;vertical&quot;,&quot;curved&quot;:0,&quot;rounded&quot;:0};" vertex="1" parent="zPZcFMMT5zsT-Kv5wijd-115">
          <mxGeometry x="101" y="352" width="10" height="100" as="geometry" />
        </mxCell>
        <mxCell id="zPZcFMMT5zsT-Kv5wijd-118" value="" style="endArrow=none;dashed=1;html=1;rounded=0;entryX=0.5;entryY=1;entryDx=0;entryDy=0;" edge="1" parent="zPZcFMMT5zsT-Kv5wijd-115" source="zPZcFMMT5zsT-Kv5wijd-117">
          <mxGeometry width="50" height="50" relative="1" as="geometry">
            <mxPoint x="161" y="152" as="sourcePoint" />
            <mxPoint x="106.5" y="107" as="targetPoint" />
          </mxGeometry>
        </mxCell>
        <mxCell id="zPZcFMMT5zsT-Kv5wijd-151" value="" style="endArrow=none;dashed=1;html=1;rounded=0;entryX=0.5;entryY=1;entryDx=0;entryDy=0;" edge="1" parent="zPZcFMMT5zsT-Kv5wijd-115">
          <mxGeometry width="50" height="50" relative="1" as="geometry">
            <mxPoint x="106" y="712" as="sourcePoint" />
            <mxPoint x="105.70999999999998" y="452" as="targetPoint" />
          </mxGeometry>
        </mxCell>
        <mxCell id="zPZcFMMT5zsT-Kv5wijd-152" value="Front" style="swimlane;whiteSpace=wrap" vertex="1" parent="1">
          <mxGeometry x="85" y="47" width="200" height="732" as="geometry" />
        </mxCell>
        <mxCell id="zPZcFMMT5zsT-Kv5wijd-153" value="/Home" style="rounded=0;whiteSpace=wrap;html=1;" vertex="1" parent="zPZcFMMT5zsT-Kv5wijd-152">
          <mxGeometry x="46.5" y="47" width="120" height="60" as="geometry" />
        </mxCell>
        <mxCell id="zPZcFMMT5zsT-Kv5wijd-154" value="" style="html=1;points=[];perimeter=orthogonalPerimeter;outlineConnect=0;targetShapes=umlLifeline;portConstraint=eastwest;newEdgeStyle={&quot;edgeStyle&quot;:&quot;elbowEdgeStyle&quot;,&quot;elbow&quot;:&quot;vertical&quot;,&quot;curved&quot;:0,&quot;rounded&quot;:0};" vertex="1" parent="zPZcFMMT5zsT-Kv5wijd-152">
          <mxGeometry x="101.5" y="132" width="10" height="578" as="geometry" />
        </mxCell>
        <mxCell id="zPZcFMMT5zsT-Kv5wijd-155" value="" style="endArrow=none;dashed=1;html=1;rounded=0;entryX=0.5;entryY=1;entryDx=0;entryDy=0;" edge="1" parent="zPZcFMMT5zsT-Kv5wijd-152" source="zPZcFMMT5zsT-Kv5wijd-154" target="zPZcFMMT5zsT-Kv5wijd-153">
          <mxGeometry width="50" height="50" relative="1" as="geometry">
            <mxPoint x="161.5" y="152" as="sourcePoint" />
            <mxPoint x="211.5" y="102" as="targetPoint" />
          </mxGeometry>
        </mxCell>
        <mxCell id="zPZcFMMT5zsT-Kv5wijd-160" value="render Data" style="html=1;verticalAlign=bottom;endArrow=open;dashed=1;endSize=8;edgeStyle=elbowEdgeStyle;elbow=vertical;curved=0;rounded=0;" edge="1" parent="zPZcFMMT5zsT-Kv5wijd-152" source="zPZcFMMT5zsT-Kv5wijd-46">
          <mxGeometry relative="1" as="geometry">
            <mxPoint x="191.5" y="223.32999999999998" as="sourcePoint" />
            <mxPoint x="111.5" y="223.32999999999998" as="targetPoint" />
          </mxGeometry>
        </mxCell>
        <mxCell id="zPZcFMMT5zsT-Kv5wijd-178" value="return Confirmación" style="html=1;verticalAlign=bottom;endArrow=open;dashed=1;endSize=8;edgeStyle=elbowEdgeStyle;elbow=vertical;curved=0;rounded=0;" edge="1" parent="zPZcFMMT5zsT-Kv5wijd-152">
          <mxGeometry relative="1" as="geometry">
            <mxPoint x="302" y="553" as="sourcePoint" />
            <mxPoint x="111.5" y="553.3299999999999" as="targetPoint" />
          </mxGeometry>
        </mxCell>
      </root>
    </mxGraphModel>
  </diagram>
</mxfile>
